/* XPM */
static char *d2c45f9c7a454053c299d091708df960VyVKy7GO6UPZ840g[] = {
/* columns rows colors chars-per-pixel */
"64 64 70 1 ",
"  c #7D7C75",
". c #837D76",
"X c #847E78",
"o c #7F807D",
"O c #858177",
"+ c #888276",
"@ c #85827B",
"# c #8A857C",
"$ c #8D897F",
"% c #91877E",
"& c #938A7E",
"* c #988E7E",
"= c #858582",
"- c #8A8682",
"; c #878882",
": c #8C8A84",
"> c #8D8D8A",
", c #938D84",
"< c #998F85",
"1 c #928E8A",
"2 c #8F908B",
"3 c #969086",
"4 c #999286",
"5 c #94928C",
"6 c #9B958C",
"7 c #9D988E",
"8 c #959592",
"9 c #9A9692",
"0 c #979893",
"q c #9D9A94",
"w c #9E9D99",
"e c #A19486",
"r c #A0978E",
"t c #A29A8E",
"y c #A09790",
"u c #A39C94",
"i c #A89F94",
"p c #A29E99",
"a c #A89F98",
"s c #9FA19B",
"d c #A5A096",
"f c #A9A296",
"g c #A5A29B",
"h c #AAA49C",
"j c #AEA89E",
"k c #B0A79D",
"l c #B1AA9E",
"z c #A6A5A1",
"x c #AAA6A1",
"c c #ADA9A2",
"v c #AEACA9",
"b c #B0A7A0",
"n c #B3ACA4",
"m c #B8AFA6",
"M c #B3AEA9",
"N c #B8AFA8",
"B c #B6B0A6",
"V c #B9B2A6",
"C c #B5B2AB",
"Z c #BBB4AC",
"A c #BFB8AD",
"S c #BAB6B1",
"D c #BEB9B3",
"F c #C0B9AD",
"G c #C0B7B0",
"H c #C2BCB4",
"J c #C3BFB8",
"K c #C9C1B7",
"L c #C7C3BC",
"P c #CBC5BC",
/* pixels */
",3xhuhhaxkm%%%eu49b6u94yD,:##y<t63,gbyhuphjG#%%4u69b6yq7rm,::$66",
":3hxuuuphbxX#:y<69juyr7yZO###,4t,:,gbu7quyinX#:64<9bu777rVO##+#i",
"uamNnVnVZGFhuhbhhhmnnhjjZ46,3djcuqumNnncmVZAhuhljhjmnnjnVHud534l",
"xMu6iuutkauauabppznvmquyd4q6CxpzccCh4itutdhdaypbpppnvndghgdgquxu",
"MMu6<&34tdc60u08gxcCZqudgqy7DCvvDvCjr<&44efj98qq8wxbMSudhdgd7dMq",
"SDmhr4refcchpbzwMMcDZ36qquh3LvvCSSDZhr6e6rBchpxnwvMxSD56ggdg3jzq",
"SSvufuujjtuuihvuggCSvqpgjcpwgzwgxDvh6wfhgfjdyyhgqpxMDMppgjncpggw",
"0gg55--q,XX#,19=;2sgq5qpgq::;====v82;=-53,,OOX3::,1qxw50wgg82>>>",
"qBAcggwjhqddggh:1wZZpqhzgg025=->;Cw85>1qgujutdcwughnGhqgcghs0w2;",
"hhcu3&3durdAccgghnhhghcjjcsqqph<:q>gxxpgcxBA5dd6,3ujhphhhgZgs0gh",
"uuu&#,##,43c8>5wpura9uhy0gg25g9Xo$#5q3s0589C$3+$$$3ry69y66vzs0gq",
"gudr33&3##3g58089hyyuihxhjgs5cu#$#o:q550225V#+::34udyyyaggBxg0jj",
"jjkkjfdfd4dg896qzxpppnvjgcngqxxuhuujjzjfpuun33664ffgppxvhhmvc0zh",
"ghBZFlkfjhn4,,47n0889xpqqhZz>008drgnmmlitytj66666j8q88ga7qgnx289",
"w8gnHBljBBn:$36tx282-pccxCDg0965h0>qdVmffflB3:4yyx25>;0cxbBZz58q",
"hhjftulfVjyjnw6q80waa0wggwqq0qgAnjhhurefdnl7jng6w5qqxpqpgggw8qqw",
"uuy61,aiu5uhgq1>:>q91151552=25wcxuuu6,,rpu6qhgw5>;28p1,51>w5=>2q",
"96pu69hhhpx6719935h45351gq555g3fuq6ud69dhham6719q35gu5151u5,:,99",
":3hhy6yyuhj.##9<16hq666yPdccjc6t,;1gbuqyuypNX#%46,6h6##$3mX#@#:t",
"93nmhjhcmZV,<6trhunjhdhjPjcjdBitr53bVnmjnnmFyyuuuddbd4,4uA:,#+#f",
"xBNbmnNnAZVBhnZnpcnBCnnnAjjrhvjvgunBbNlnnNVVVcnGmhhmnnhhbAgguhjm",
"vMr<4<<*t661:,5:5quqc6yw7ugfVw18wghg,4*&%4yu989p::5uph6qdqdutdx0",
"CScu4<<<thh62q52gggzZ4uggghqApwgvgMbu4&<<4jcgqgs:8qugn16gddu6hcg",
"SDnjbfjfnbZbghhwgxCDCsjjnCVcVjgCBCSBjljhhjnVnhgcwaxvDBucnnmngnBz",
"=:15cg020xxc>;;=;==55:>>2g,,@+.u5;:15na025gcCsszzzw5w>>>;5d:,:O.",
"559pAg5wgsgj>;===@=88>;=;j63,:Ohu658pGp58ssxSxxxszw5w8>>=;g63,,#",
"uugnAcdghdCvqq51:,1q9u9qqccnlffngquunDnugjgBSxzcwq93pqp90qcxncjd",
"O$,yr67t03Bs95qu#X@@:gyp588qj#6&,.:#uyuquqqmzs0wp5:>31apgwqqwhd4",
"#33te74r63nw08whO O  q89588>1O@@$O3,duuyuq7nzzwgn3:1:-9q800255q#",
"<66h<66thdBgg8uVqu9>5x9q90159,,,t&64l6yyflhVxcw6Zudu15aq908186q$",
"bnDZHnlmmhB67666mgwpgBxuuxSvqwpqbnMZDAAllljjuuu77cgppgnh<-<uxwqw",
"uwcmGllffjj&:&47h25>>ggddhZg>851dqqcmZlftuhl7qtduh>8>>0y<X:9q155",
"guhjljkhnnd7706qp0qq0qgzgchs06qccgdhhcjlfnnauhdqqs5qpq8puqwwqqqq",
"uuu76,te3#3fgq:;=1181180022;82sCcudq443tiu79hhu25;50p51895q5->50",
"jqy7,#ee*@3ud;52;:p6:-:@=q-#0w5ccc7uq,,hjhdgjx808;:dp1,5-;g1;808",
"mnbnhjFfi&6dd:q6>9cgpp5>qc520s8jCBclnjjFVBhhnn8ww55cvza955Bq20g8",
"6yfhggVjii4aahNuuphHccwwwSg0qggcCqqdhhhVmbngNnmGuqquVpp00qBswqgd",
"::334qjq7::15yl9qqpZgg00,Bw250ssg,,377phggwquuhGq316x,1:;>cd5200",
"CcBVBBVxhpupaamhnMZJCBcgcKjqsjvhBZnVCVZCBcczaxbJnnvMGcxgpgDBqscB",
":dg;:>55ppaxxk:y:,->3uvncjqg0B5:;>sc5>2555paxzMpc6##;,6uhg7376c0",
"8qs;2;55q060pv89<<166ahagc088x5@;5wx2;:255w,0qvzxu417<ya517-->q8",
"qwd2:;58g8215pqhrhpahNxzgv008Mq-qw0j5-;05wq5219aNkhuhanx039:>;ga",
"gggujcczMSCCMnbbVbnxbMvgBnMBvBngsccgqgCxgvSCCMnxmNha9uhhqhihjbMn",
"gs5qnDgzcvvSvzxbVxxpq8upnhud68pzsgs8qjLqgzccMaqqily6-XX,1h767119",
"855wsB8qpczMpppgZxaapaazh57:,;3cj585qsC5>wgav8119Vh791uagn53,:O,",
"gxpqvJzgvcCZcqugxhZNpffnAnVVAbBDgsggwhLgscvMZbqqgbbVVbnnVHnMZBnn",
"8q2:9n;;589gq>1q5>n66rkan6whyhcZg2w8:5g2;>88gg1>000MhuinnVquhujc",
"02>;5q251,1q8:;188h61,itr,36uygBgw2;=>555>:198>#>80nuq7uif,33uyu",
"wq00pxzgwqzgw99qqgZdqnliltffnhjZMwqq0wpzzwqgpwqqqqhZhdcBdmtfflhj",
"q88MZnhxx2=2>2N94&O3Zlfkflli5;56X118vZmxxM8=>2>B44,@$BBfffmAlq80",
"888MxpyyM08888N<3:35lfdtflBVjur5:1>8Mvpy9Np8889B43,16jdiiflAABgg",
"6wwagappbMqqapbh6wggVjlftijjffdd366pggaapbN00zpbhrygdVfmffjlljjf",
"#66>80880p X,-4Zq0sgBdu7t474*3$3##:6180888x.X,-1Cw0gsCggduuuu33,",
"6698200qpg@#X.:g08wgc4q77t6$#,O#:r:u8>80p9b.#X.#hq5qxcqdgdyy6+3#",
"ylZnvzavxx55>67hdsgnZjcjljns4*6dfgdGnvzavxM85158jgsgvZccjnhbh433",
"9udgpn:;>10q;==@>>8Hzggq6AAjssqBg6uuhhx:-=890:==o::8Cggx06nDcguw",
"X@$:,h=:;15>@ ;==->Zzp050hv51;:x:.X#,,j:-;>2>=X===;>ngpq58gj55-:",
"ydfhunwq80vMpw8wpwwZMxjfcnkuccxCj7hdpubqw88cMhp99wpqBMcjdjjjggcj",
"vnq:3--#X.GMxSzwxaphblt4r6ulFDSSMvvg-4::$..bMcBxwzhggnli5t6tcBLC",
"vM4O-OO#XXmxvzq8qq5ucu64*&,7nCSDvMMgX#@+#O#chvvq89p89cft4**34uvC",
"wh3-$O$$,:mvzapghu8xuhr6tuu<ZMczzwxu#$@&$,:nxxgughp9hyhi4rtr,gMx",
"n71,u6AjjhmNbxhbkiajHGVmjVVAnuwfjkg,,r4VkchmmnxhjbhdaVmllfkjmmpu",
"i#@##On679yau9<66:#XAiyp7phV31:,e44OO##vr79yhu9<<4##.u4%,#%6hu,:",
"r7,,33Nuquuigyyu4<&<ZaipaauZ346dr<d:,6,ntypuuhuyir<&<bu7464rbg63"
};
